<?xml version="1.0" encoding="iso-8859-1"?>
<!-- Generator: Adobe Illustrator 22.0.1, SVG Export Plug-In . SVG Version: 6.00 Build 0)  -->
<svg version="1.1" id="Layer_1" xmlns="http://www.w3.org/2000/svg" xmlns:xlink="http://www.w3.org/1999/xlink" x="0px" y="0px"
	 viewBox="0 0 100.25 100.25" style="enable-background:new 0 0 100.25 100.25;" xml:space="preserve">
<g>
	<path d="M37.948,44.225c-3.033,0-5.5,2.467-5.5,5.5s2.467,5.5,5.5,5.5s5.5-2.467,5.5-5.5S40.981,44.225,37.948,44.225z
		 M37.948,52.225c-1.378,0-2.5-1.121-2.5-2.5s1.122-2.5,2.5-2.5s2.5,1.122,2.5,2.5S39.327,52.225,37.948,52.225z"/>
	<path d="M62.287,44.225c-3.032,0-5.5,2.467-5.5,5.5s2.468,5.5,5.5,5.5s5.5-2.467,5.5-5.5S65.319,44.225,62.287,44.225z
		 M62.287,52.225c-1.379,0-2.5-1.121-2.5-2.5s1.121-2.5,2.5-2.5s2.5,1.122,2.5,2.5S63.666,52.225,62.287,52.225z"/>
	<path d="M89.755,13.666c-4.917-4.577-12.399-5.988-18.19-3.429c-2.924,1.292-7.705,4.678-8.118,13.013H37.056
		c-0.414-8.335-5.195-11.722-8.12-13.013c-5.794-2.556-13.272-1.147-18.189,3.43C4.316,19.653,0.36,30.227,5.242,38.852
		c1.534,2.71,6.005,8.915,7.839,11.434C13.033,50.433,13,50.587,13,50.75v14.542C13,80.156,25.17,92.25,40.129,92.25h19.742
		C74.83,92.25,87,80.156,87,65.292V50.863c1.447-1.978,6.593-9.066,8.261-12.012C100.142,30.227,96.187,19.653,89.755,13.666z
		 M12.791,15.862c2.693-2.506,6.418-3.875,9.986-3.875c1.731,0,3.427,0.323,4.947,0.994c4.04,1.783,6.288,5.735,6.366,11.159
		L15.134,48.007c-1.979-2.73-5.933-8.25-7.281-10.633C4.737,31.869,5.433,22.712,12.791,15.862z M51.176,74.305
		c-4.607,0-8.5-2.29-8.5-5s3.893-5,8.5-5s8.5,2.29,8.5,5S55.783,74.305,51.176,74.305z M59.871,89.25H53V77.199
		c5.549-0.593,9.676-3.842,9.676-7.894c0-4.486-5.052-8-11.5-8c-6.449,0-11.5,3.514-11.5,8c0,4.21,4.448,7.563,10.324,7.96V89.25
		h-9.871C26.824,89.25,16,78.503,16,65.292V51.668c0.094-0.073,0.182-0.156,0.258-0.252l20.007-25.19
		c0.077,0.012,0.155,0.024,0.236,0.024h27c0.229,0,0.444-0.056,0.639-0.148L84,51.109v14.183C84,78.503,73.176,89.25,59.871,89.25z
		 M92.649,37.374c-1.349,2.383-5.302,7.903-7.281,10.633L66.412,24.14c0.077-5.423,2.325-9.375,6.364-11.158
		c4.651-2.055,10.935-0.844,14.935,2.88C95.069,22.712,95.766,31.869,92.649,37.374z"/>
</g>
</svg>
